<?xml version="1.0" standalone="no"?>
<!DOCTYPE svg PUBLIC "-//W3C//DTD SVG 20010904//EN"
 "http://www.w3.org/TR/2001/REC-SVG-20010904/DTD/svg10.dtd">
<svg version="1.0" xmlns="http://www.w3.org/2000/svg"
 width="500.000000pt" height="500.000000pt" viewBox="0 0 500.000000 500.000000"
 preserveAspectRatio="xMidYMid meet">
<metadata>
Created by potrace 1.11, written by Peter Selinger 2001-2013
</metadata>
<g transform="translate(0.000000,500.000000) scale(0.100000,-0.100000)"
fill="#000000" stroke="none">
<path d="M247 4528 c31 -29 85 -78 118 -108 34 -30 103 -93 154 -140 52 -47
99 -89 105 -95 24 -22 221 -201 236 -215 33 -30 193 -175 211 -191 10 -9 60
-54 111 -101 51 -46 122 -111 158 -143 36 -32 70 -63 75 -69 6 -6 33 -31 60
-55 28 -24 73 -65 100 -90 28 -25 97 -89 155 -141 58 -52 110 -99 116 -105 6
-5 49 -45 96 -88 47 -42 96 -87 110 -100 13 -12 61 -56 107 -97 46 -41 98 -88
116 -105 49 -45 115 -106 162 -147 l41 -36 -41 -39 c-23 -22 -94 -86 -157
-143 -63 -56 -124 -112 -136 -124 -12 -12 -35 -34 -53 -49 -17 -15 -107 -96
-199 -179 -92 -84 -180 -164 -196 -178 -15 -14 -40 -36 -55 -50 -15 -14 -69
-63 -120 -110 -52 -47 -99 -90 -105 -95 -6 -6 -83 -75 -171 -155 -88 -80 -162
-147 -165 -150 -3 -3 -54 -51 -115 -105 -60 -55 -130 -118 -155 -141 -127
-116 -179 -163 -220 -199 -24 -22 -56 -51 -71 -65 -14 -14 -46 -43 -70 -64
-24 -21 -69 -62 -99 -90 -30 -28 -79 -72 -107 -98 l-52 -48 1167 0 1167 1 56
52 c48 44 142 130 248 226 14 13 46 42 71 65 25 22 90 82 144 131 55 50 107
97 116 105 31 29 203 185 220 200 10 8 59 53 111 100 51 47 104 96 118 108 14
13 44 40 66 60 22 21 110 100 195 177 85 77 157 142 160 146 3 3 52 47 110 99
58 52 107 97 110 100 5 5 216 198 236 215 39 34 209 189 261 239 60 56 62 60
44 75 -16 14 -132 119 -202 182 -14 13 -65 60 -114 104 -49 44 -93 85 -99 90
-6 6 -63 57 -126 115 -64 58 -156 142 -206 187 -49 45 -99 90 -110 100 -34 29
-185 166 -203 184 -18 18 -104 96 -235 214 -49 44 -94 85 -100 90 -6 6 -40 37
-76 70 -36 32 -110 99 -165 149 -102 93 -148 135 -320 291 -55 50 -109 99
-120 110 -12 11 -60 55 -107 98 l-86 77 -1167 0 -1166 0 58 -52z"/>
</g>
</svg>
